<svg xmlns="http://www.w3.org/2000/svg" width="57.399" height="57.406" viewBox="0 0 57.399 57.406">
  <g id="Group_3054" data-name="Group 3054" transform="translate(-345 -397)">
    <path id="Path_1242" data-name="Path 1242" d="M-1400.453,1329.306a28.719,28.719,0,0,1,28.7-28.681,28.71,28.71,0,0,1,28.7,28.75,28.721,28.721,0,0,1-28.733,28.656A28.724,28.724,0,0,1-1400.453,1329.306Zm20.723,13.847a11.288,11.288,0,0,0,1.848,6.646c2.916,4.222,8.182,4.621,11.573.875a10.865,10.865,0,0,0-.437-14.438,6.949,6.949,0,0,0-10,0A10.027,10.027,0,0,0-1379.73,1343.153Zm21.52-18.927a7.048,7.048,0,0,0-1.444-4.793,3.14,3.14,0,0,0-4.858-.2,5.924,5.924,0,0,0-1.631,3.853,6.4,6.4,0,0,0,1.67,5.223,3.045,3.045,0,0,0,4.568,0A6,6,0,0,0-1358.21,1324.226Zm-27.1-.591a6.475,6.475,0,0,0,1.6,4.558,3.132,3.132,0,0,0,5-.234,6.267,6.267,0,0,0,1.342-3.566,6.312,6.312,0,0,0-1.851-5.372,2.985,2.985,0,0,0-4.056-.125A6.058,6.058,0,0,0-1385.312,1323.635Zm7.185-13.465a1.6,1.6,0,0,0-1.493-1.557,5.172,5.172,0,0,0-.925.029,16.544,16.544,0,0,0-6.933,2.549,17.748,17.748,0,0,0-4.613,4.334,1.592,1.592,0,0,0,1.093,2.633,1.813,1.813,0,0,0,1.626-.923,14.327,14.327,0,0,1,5.3-4.29,13.245,13.245,0,0,1,4.5-1.191A1.542,1.542,0,0,0-1378.127,1310.17Zm14.881-1.555c-1.267-.022-1.933.448-2.105,1.3a1.609,1.609,0,0,0,.954,1.738,2.591,2.591,0,0,0,.9.167,9.76,9.76,0,0,1,2.317.457,14.137,14.137,0,0,1,6.922,4.8c.134.165.26.337.4.495a1.58,1.58,0,0,0,2.222.251,1.575,1.575,0,0,0,.261-2.224,17.381,17.381,0,0,0-4.016-3.965A16.111,16.111,0,0,0-1363.246,1308.615Z" transform="translate(1745.453 -903.625)" fill="#252525"/>
    <path id="Path_1243" data-name="Path 1243" d="M-1381.766,1328.343c-1.445,0-2.889,0-4.333-.005-.16,0-.371.108-.417-.225a6.666,6.666,0,0,1,2.966-5.67,3.7,3.7,0,0,1,4.253.438,6.762,6.762,0,0,1,2.313,5.152c.015.344-.174.311-.394.311Q-1379.57,1328.339-1381.766,1328.343Z" transform="translate(1755.447 -888.289)" fill="#252525"/>
  </g>
</svg>
