<svg xmlns="http://www.w3.org/2000/svg" width="210.138" height="189.834" viewBox="0 0 210.138 189.834">
  <g id="Group_2840" data-name="Group 2840" transform="translate(-118.249 -111.5)">
    <g id="Group_2837" data-name="Group 2837" transform="translate(183.062 111.5)">
      <path id="Path_1387" data-name="Path 1387" d="M256.066,187.928s8.818-4.172,4.5-11.921c0,0-2.624-4.365-2.768-7.826,0,0-3.733,5.741-1.705,10.089S257.69,185.23,256.066,187.928Z" transform="translate(-241.475 -135.625)" fill="#fff"/>
      <path id="Path_1388" data-name="Path 1388" d="M336.064,164.495s6.6-7.179-.31-12.738c0,0-4.071-3.059-5.506-6.213,0,0-1.3,6.724,2.21,9.991S336.554,161.384,336.064,164.495Z" transform="translate(-273.195 -125.99)" fill="#fff"/>
      <path id="Path_1389" data-name="Path 1389" d="M289.014,240.236c-8.269,0-15.09,1.993-16.231,4.582a1.9,1.9,0,0,0-.187.764c0,2.952,7.35,5.345,16.418,5.345s16.417-2.393,16.417-5.345a1.9,1.9,0,0,0-.186-.764C304.1,242.228,297.282,240.236,289.014,240.236Z" transform="translate(-248.757 -166.294)" fill="#fff"/>
      <path id="Path_1390" data-name="Path 1390" d="M306.051,157l-.086-.145-.687-1.118-.01-.016c0,.011.152,17.569-17.443,17.569,0,0,13.855-15.354-4.868-31.082-1.869-1.57-3.521-3.071-4.988-4.51-13.224-12.981-11-20.8-9.991-26.2,0,0-15.595,6.555-13.476,29.338a55.49,55.49,0,0,0,1.118,6.986c6.366,28.46-13.855,23.592-13.855,23.592s-7.489-1.872-5.242-11.609c0,0-2.257,1.742-3.809,6.262a40.025,40.025,0,0,0-1.245,5.83,40.257,40.257,0,1,0,80.135,5.509A40.068,40.068,0,0,0,306.051,157Zm-22.6,15.254a.766.766,0,1,1-.765.766A.765.765,0,0,1,283.448,172.253Zm-4.679-8.64,1.585,1.072-3.417,5.053-1.585-1.072Zm-4.478-.107a1.34,1.34,0,1,1-1.34-1.34A1.34,1.34,0,0,1,274.291,163.506Zm-3.4-12.943a1.34,1.34,0,1,1-1.339,1.339A1.339,1.339,0,0,1,270.893,150.563Zm-1.153,22.963a.574.574,0,1,1-.574.574A.574.574,0,0,1,269.74,173.526Zm-4.146-16.639,2.769,5.435-1.705.869-2.769-5.435Zm-3.313,9.883a.766.766,0,1,1-.766.766A.766.766,0,0,1,262.281,166.77Zm-3.834,7.467,3.724,1.464-.7,1.781-3.723-1.464Zm33.9,24.95h-.039c-.64,6.814-9.777,12.218-20.96,12.218s-20.321-5.4-20.96-12.218h-.039v-9.163c0-4.639,9.4-8.4,21-8.4s21,3.761,21,8.4Z" transform="translate(-231.092 -111.5)" fill="#fff"/>
    </g>
    <g id="Group_2839" data-name="Group 2839" transform="translate(118.249 254.076)">
      <rect id="Rectangle_1841" data-name="Rectangle 1841" width="8.293" height="32.217" transform="translate(71.926 0.013) rotate(90)" fill="#fff"/>
      <path id="Path_1391" data-name="Path 1391" d="M160.524,378.011V359.754h-8.591v18.257H141.2a4.3,4.3,0,1,0,0,8.591h10.736V402.71h0a4.3,4.3,0,0,0,8.591,0h0V386.6h0v-8.591Z" transform="translate(-126.188 -359.741)" fill="#fff"/>
      <path id="Path_1392" data-name="Path 1392" d="M118.249,359.816v42.956h0a4.3,4.3,0,0,0,8.59,0h0V359.816Z" transform="translate(-118.249 -359.767)" fill="#fff"/>
      <path id="Path_1393" data-name="Path 1393" d="M444.471,359.816v42.956h0a4.3,4.3,0,0,0,8.59,0h0V359.816Z" transform="translate(-257.1 -359.767)" fill="#fff"/>
      <path id="Path_1394" data-name="Path 1394" d="M187.4,382.2v30.1h0a4.3,4.3,0,0,0,8.59,0h0V382.2Z" transform="translate(-147.682 -369.296)" fill="#fff"/>
      <g id="Group_2838" data-name="Group 2838" transform="translate(201.338 0.016)">
        <path id="Path_1395" data-name="Path 1395" d="M468.788,382.2v30.1h0a4.3,4.3,0,0,0,8.59,0h0V382.2Z" transform="translate(-468.788 -369.312)" fill="#fff"/>
        <circle id="Ellipse_353" data-name="Ellipse 353" cx="4.296" cy="4.296" r="4.296" transform="translate(0.209)" fill="#fff"/>
      </g>
      <path id="Path_1396" data-name="Path 1396" d="M323.849,359.754c-.13-.013-.261-.021-.395-.022H317.9a4.318,4.318,0,0,0-3.52,1.74,4.071,4.071,0,0,0-.775,2.4V402.73h0a4.3,4.3,0,0,0,4.123,4.25h5.248l.288,0a23.617,23.617,0,0,0,.585-47.227Zm-.6,38.622c-.354,0-.705-.012-1.053-.036V368.387q.517-.035,1.043-.036a15.013,15.013,0,1,1,.01,30.025Z" transform="translate(-201.399 -359.731)" fill="#fff"/>
      <path id="Path_1397" data-name="Path 1397" d="M261.643,382.187a17.17,17.17,0,1,0,17.176,17.164A17.169,17.169,0,0,0,261.643,382.187Zm3.473,25.217-6.885,0a4.606,4.606,0,0,1-4.608-4.6l0-6.885a4.606,4.606,0,0,1,4.6-4.608l6.885,0a4.606,4.606,0,0,1,4.608,4.6l0,6.885A4.606,4.606,0,0,1,265.116,407.4Z" transform="translate(-171.977 -369.289)" fill="#fff"/>
      <path id="Path_1398" data-name="Path 1398" d="M226.042,382.19a3.52,3.52,0,0,0-.451.006,10.148,10.148,0,0,0-5.282,1.682V382.2h-8.591v30.1h0a4.3,4.3,0,0,0,8.59,0h0V392.652a10.156,10.156,0,0,1,5.89-1.872h.108a4.3,4.3,0,0,0-.265-8.59Z" transform="translate(-158.033 -369.288)" fill="#fff"/>
      <path id="Path_1399" data-name="Path 1399" d="M394.485,395.069a4.3,4.3,0,1,0,0,8.591c.057,0,.115,0,.172,0h16.411a17.179,17.179,0,1,0-5.744,8.98A4.323,4.323,0,0,0,402.8,404.8a4.959,4.959,0,0,0-3.011,1.256,1.126,1.126,0,0,0-.128.1,8.519,8.519,0,0,1-5.2,1.762h0a8.559,8.559,0,0,1-8.563-8.556h0a8.559,8.559,0,0,1,8.556-8.563h0a8.556,8.556,0,0,1,7.415,4.276h-7.223C394.6,395.071,394.541,395.069,394.485,395.069Z" transform="translate(-228.498 -369.289)" fill="#fff"/>
    </g>
  </g>
</svg>
