<svg xmlns="http://www.w3.org/2000/svg" width="38" height="38" viewBox="0 0 38 38">
  <g id="Group_2974" data-name="Group 2974" transform="translate(-0.688 0.5)">
    <circle id="Ellipse_354" data-name="Ellipse 354" cx="19" cy="19" r="19" transform="translate(0.688 -0.5)" fill="#d60606"/>
    <g id="Group_2973" data-name="Group 2973" transform="translate(12.011 6.578)">
      <path id="Path_1400" data-name="Path 1400" d="M219.573,217.217s1.727-.817.881-2.335a4.067,4.067,0,0,1-.542-1.533,2.417,2.417,0,0,0-.334,1.976A1.777,1.777,0,0,1,219.573,217.217Z" transform="translate(-216.715 -206.972)" fill="#fff"/>
      <path id="Path_1401" data-name="Path 1401" d="M353.9,176.585s1.294-1.406-.061-2.495a4.067,4.067,0,0,1-1.078-1.217,2.416,2.416,0,0,0,.433,1.957A1.777,1.777,0,0,1,353.9,176.585Z" transform="translate(-341.587 -169.043)" fill="#fff"/>
      <path id="Path_1402" data-name="Path 1402" d="M253.267,342.19c-1.62,0-2.956.39-3.179.9a.372.372,0,0,0-.037.15c0,.578,1.44,1.047,3.216,1.047s3.216-.469,3.216-1.047a.373.373,0,0,0-.037-.15C256.222,342.58,254.886,342.19,253.267,342.19Z" transform="translate(-245.382 -327.707)" fill="#fff"/>
      <path id="Path_1403" data-name="Path 1403" d="M190.521,120.912l-.017-.028-.135-.219,0,0a3.337,3.337,0,0,1-3.417,3.441s2.714-3.007-.954-6.088c-.366-.307-.69-.6-.977-.883-2.59-2.542-2.155-4.075-1.957-5.131,0,0-3.054,1.284-2.64,5.746a10.867,10.867,0,0,0,.219,1.368c1.247,5.574-2.714,4.621-2.714,4.621s-1.467-.367-1.027-2.274a2.705,2.705,0,0,0-.746,1.227,7.845,7.845,0,0,0-.244,1.142,7.885,7.885,0,1,0,15.7,1.079A7.848,7.848,0,0,0,190.521,120.912Zm-4.427,2.988a.15.15,0,1,1-.15.15A.15.15,0,0,1,186.094,123.9Zm-.917-1.692.311.21-.669.99-.311-.21Zm-.877-.021a.262.262,0,1,1-.262-.262A.262.262,0,0,1,184.3,122.186Zm-.666-2.535a.262.262,0,1,1-.262.262A.262.262,0,0,1,183.635,119.651Zm-.226,4.5a.112.112,0,1,1-.112.112A.112.112,0,0,1,183.409,124.149Zm-.812-3.259.542,1.065-.334.17-.542-1.065Zm-.649,1.936a.15.15,0,1,1-.15.15A.15.15,0,0,1,181.948,122.826Zm-.751,1.463.729.287-.137.349-.729-.287Zm6.64,4.887h-.008c-.125,1.335-1.915,2.393-4.105,2.393s-3.98-1.058-4.105-2.393h-.008V127.38c0-.909,1.841-1.645,4.113-1.645s4.113.737,4.113,1.645Z" transform="translate(-175.839 -112)" fill="#fff"/>
    </g>
  </g>
</svg>
